<svg width="57" height="80" viewBox="0 0 57 80" fill="none" xmlns="http://www.w3.org/2000/svg">
<path d="M13.3 71.84C14.0867 71.9867 14.7333 72.38 15.24 73.02C15.7467 73.66 16 74.3933 16 75.22C16 75.9667 15.8133 76.6267 15.44 77.2C15.08 77.76 14.5533 78.2 13.86 78.52C13.1667 78.84 12.3467 79 11.4 79H5.38V65.04H11.14C12.0867 65.04 12.9 65.1933 13.58 65.5C14.2733 65.8067 14.7933 66.2333 15.14 66.78C15.5 67.3267 15.68 67.9467 15.68 68.64C15.68 69.4533 15.46 70.1333 15.02 70.68C14.5933 71.2267 14.02 71.6133 13.3 71.84ZM8.18 70.8H10.74C11.4067 70.8 11.92 70.6533 12.28 70.36C12.64 70.0533 12.82 69.62 12.82 69.06C12.82 68.5 12.64 68.0667 12.28 67.76C11.92 67.4533 11.4067 67.3 10.74 67.3H8.18V70.8ZM11 76.72C11.68 76.72 12.2067 76.56 12.58 76.24C12.9667 75.92 13.16 75.4667 13.16 74.88C13.16 74.28 12.96 73.8133 12.56 73.48C12.16 73.1333 11.62 72.96 10.94 72.96H8.18V76.72H11Z" fill="black"/>
<path d="M19.6516 66.6C19.1582 66.6 18.7449 66.4467 18.4116 66.14C18.0916 65.82 17.9316 65.4267 17.9316 64.96C17.9316 64.4933 18.0916 64.1067 18.4116 63.8C18.7449 63.48 19.1582 63.32 19.6516 63.32C20.1449 63.32 20.5516 63.48 20.8716 63.8C21.2049 64.1067 21.3716 64.4933 21.3716 64.96C21.3716 65.4267 21.2049 65.82 20.8716 66.14C20.5516 66.4467 20.1449 66.6 19.6516 66.6ZM21.0316 67.92V79H18.2316V67.92H21.0316Z" fill="black"/>
<path d="M30.358 79L26.598 74.28V79H23.798V64.2H26.598V72.62L30.318 67.92H33.958L29.078 73.48L33.998 79H30.358Z" fill="black"/>
<path d="M45.7777 73.22C45.7777 73.62 45.751 73.98 45.6977 74.3H37.5977C37.6643 75.1 37.9443 75.7267 38.4377 76.18C38.931 76.6333 39.5377 76.86 40.2577 76.86C41.2977 76.86 42.0377 76.4133 42.4777 75.52H45.4977C45.1777 76.5867 44.5643 77.4667 43.6577 78.16C42.751 78.84 41.6377 79.18 40.3177 79.18C39.251 79.18 38.291 78.9467 37.4377 78.48C36.5977 78 35.9377 77.3267 35.4577 76.46C34.991 75.5933 34.7577 74.5933 34.7577 73.46C34.7577 72.3133 34.991 71.3067 35.4577 70.44C35.9243 69.5733 36.5777 68.9067 37.4177 68.44C38.2577 67.9733 39.2243 67.74 40.3177 67.74C41.371 67.74 42.311 67.9667 43.1377 68.42C43.9777 68.8733 44.6243 69.52 45.0777 70.36C45.5443 71.1867 45.7777 72.14 45.7777 73.22ZM42.8777 72.42C42.8643 71.7 42.6043 71.1267 42.0977 70.7C41.591 70.26 40.971 70.04 40.2377 70.04C39.5443 70.04 38.9577 70.2533 38.4777 70.68C38.011 71.0933 37.7243 71.6733 37.6177 72.42H42.8777Z" fill="black"/>
<path d="M24.0401 34.9519C24.04 38.4551 21.2348 41.2483 17.7869 41.2483C14.339 41.2483 11.5337 38.4551 11.5337 34.9519H9.79409C9.79409 39.3893 13.3796 43 17.7869 43C22.1942 43 25.7797 39.3893 25.7797 34.9519H24.0401Z" fill="black"/>
<path d="M17.8016 23.3006C12.5038 23.3006 8.05993 27.8074 8.05993 33.1418V34.0176H16.8738V35.0686H18.6134V34.0176H27.5432V33.1418C27.5432 27.8074 23.0995 23.3006 17.8016 23.3006ZM9.802 32.266C9.83773 31.9491 9.8944 31.6378 9.96698 31.3317H20.4689V29.5801H10.6059C11.9403 26.9238 14.6921 25.0522 17.7868 25.0522C20.8815 25.0522 23.6333 26.9239 24.9677 29.5801H22.3245V31.3317H25.6065C25.6791 31.6377 25.7359 31.949 25.7715 32.266H9.802Z" fill="black"/>
<path d="M47.9543 23.3314V17.5476L45.2869 14.858V9.35925C45.9327 10.1854 46.9343 10.717 48.0703 10.717V8.96533C47.0266 8.96533 46.2689 8.15161 46.2689 7.15146C46.2689 6.15143 47.0264 5.3377 48.0703 5.3377V3.58627C46.378 3.58627 44.9831 4.7651 44.6215 6.3421H31.9502V8.09376H35.5453V9.02799H34.7335V10.7797H37.2849V8.09387H39.9522V22.9735L35.1856 28.763H32.994V30.5147H36.0031L41.6918 23.6053V8.09376H43.5473V15.5829L46.2146 18.2724V19.7711H44.475V21.5228H46.2146V23.3529C41.9154 23.8095 38.3237 27.2077 37.5536 31.4487H32.0122V18.4456C32.0122 17.1766 31.2757 16.0774 30.2106 15.5589V14.3031H32.0122V13.4273C32.0122 10.967 30.0243 8.96533 27.5809 8.96533H20.4786V9.84116C20.4786 11.9689 21.9658 13.7524 23.9481 14.196V15.241H19.547V12.5514H17.7663V2.64789C17.7663 1.18791 16.5867 0 15.1366 0H2.62968C1.17963 0.000112099 0 1.18791 0 2.64789V14.3031H13.2788V15.2465C11.8806 15.3008 10.5596 15.9928 9.71716 17.1238L9.04986 18.0196H4.34892V24.3308L0 30.1696V33.1305H7.1024V31.3788H1.73961V30.7535L11.1089 18.1748C11.6601 17.4347 12.5377 16.9928 13.4563 16.9928H28.8296C29.6253 16.9928 30.2726 17.6447 30.2726 18.4458V18.8371H23.1363V20.5887H30.2727V31.4488H28.4711V33.2004H37.4009V34.0179H47.0266V35.0688H48.7662V34.0179H57V33.142C57 28.0624 52.9183 23.7336 47.9543 23.3314ZM6.08853 21.9954V19.7712H7.74521L6.08853 21.9954ZM1.73961 12.5516V5.40787H6.20454V3.65633H1.73961V2.648C1.73961 2.15376 2.13895 1.75177 2.62968 1.75177H15.1366C15.6275 1.75177 16.0267 2.15387 16.0267 2.648V3.65633H11.5392V5.40798H16.0267V12.5517L1.73961 12.5516ZM17.8074 15.2411H15.0183V14.3031H17.8074V15.2411ZM28.4711 15.2411H25.6877V14.3031H28.4711V15.2411ZM24.9098 12.5516C23.7298 12.5516 22.7247 11.7832 22.3624 10.7171H27.581C28.761 10.7171 29.766 11.4855 30.1285 12.5516H24.9098ZM39.1843 32.266C39.22 31.9491 39.2767 31.6378 39.3493 31.3317H49.9258V29.5801H39.9882C41.3225 26.9238 44.0744 25.0522 47.1691 25.0522C50.2638 25.0522 53.0156 26.9239 54.3499 29.5801H51.5494V31.3317H54.9887C55.0613 31.6377 55.1182 31.949 55.1537 32.266H39.1843Z" fill="black"/>
<path d="M19.5882 34.9519C19.5882 36.0028 18.7801 36.7656 17.7869 36.7656C16.7936 36.7656 15.9855 36.0029 15.9855 34.9519H14.2459C14.2459 36.937 15.8343 38.5172 17.7868 38.5172C19.7391 38.5172 21.3276 36.937 21.3276 34.9519H19.5882Z" fill="black"/>
<path d="M49.8606 34.9519C49.8606 36.0028 49.0525 36.7656 48.0594 36.7656C47.0661 36.7656 46.258 36.0029 46.258 34.9519H44.5183C44.5183 36.937 46.1068 38.5172 48.0594 38.5172C50.0118 38.5172 51.6001 36.937 51.6001 34.9519H49.8606Z" fill="black"/>
<path d="M10.7274 3.65566H7.01623V5.40731H10.7274V3.65566Z" fill="black"/>
<path d="M54.3125 34.9519C54.3125 38.4551 51.5074 41.2483 48.0593 41.2483C44.6114 41.2483 41.8062 38.4551 41.8062 34.9519H40.0665C40.0665 39.3893 43.6521 43 48.0593 43C52.4666 43 56.0522 39.3893 56.0522 34.9519H54.3125Z" fill="black"/>
<path d="M50.6216 3.53896H48.882V10.779H50.6216V3.53896Z" fill="black"/>
<path d="M22.3245 18.8364H18.6134V20.5881H22.3245V18.8364Z" fill="black"/>
<path d="M39.0244 18.8364H37.2848V21.5222H39.0244V18.8364Z" fill="black"/>
<path d="M3.42122 17.9022H1.68161V21.5222H3.42122V17.9022Z" fill="black"/>
</svg>
