<svg width="82" height="66" viewBox="0 0 82 66" fill="none" xmlns="http://www.w3.org/2000/svg">
<path d="M23.7 58C23.7 56.6267 24.0067 55.4 24.62 54.32C25.2467 53.2267 26.0933 52.38 27.16 51.78C28.24 51.1667 29.4467 50.86 30.78 50.86C32.34 50.86 33.7067 51.26 34.88 52.06C36.0533 52.86 36.8733 53.9667 37.34 55.38H34.12C33.8 54.7133 33.3467 54.2133 32.76 53.88C32.1867 53.5467 31.52 53.38 30.76 53.38C29.9467 53.38 29.22 53.5733 28.58 53.96C27.9533 54.3333 27.46 54.8667 27.1 55.56C26.7533 56.2533 26.58 57.0667 26.58 58C26.58 58.92 26.7533 59.7333 27.1 60.44C27.46 61.1333 27.9533 61.6733 28.58 62.06C29.22 62.4333 29.9467 62.62 30.76 62.62C31.52 62.62 32.1867 62.4533 32.76 62.12C33.3467 61.7733 33.8 61.2667 34.12 60.6H37.34C36.8733 62.0267 36.0533 63.14 34.88 63.94C33.72 64.7267 32.3533 65.12 30.78 65.12C29.4467 65.12 28.24 64.82 27.16 64.22C26.0933 63.6067 25.2467 62.76 24.62 61.68C24.0067 60.6 23.7 59.3733 23.7 58Z" fill="black"/>
<path d="M39.0116 59.42C39.0116 58.3 39.2316 57.3067 39.6716 56.44C40.1249 55.5733 40.7316 54.9067 41.4916 54.44C42.2649 53.9733 43.1249 53.74 44.0716 53.74C44.8982 53.74 45.6182 53.9067 46.2316 54.24C46.8582 54.5733 47.3582 54.9933 47.7316 55.5V53.92H50.5516V65H47.7316V63.38C47.3716 63.9 46.8716 64.3333 46.2316 64.68C45.6049 65.0133 44.8782 65.18 44.0516 65.18C43.1182 65.18 42.2649 64.94 41.4916 64.46C40.7316 63.98 40.1249 63.3067 39.6716 62.44C39.2316 61.56 39.0116 60.5533 39.0116 59.42ZM47.7316 59.46C47.7316 58.78 47.5982 58.2 47.3316 57.72C47.0649 57.2267 46.7049 56.8533 46.2516 56.6C45.7982 56.3333 45.3116 56.2 44.7916 56.2C44.2716 56.2 43.7916 56.3267 43.3516 56.58C42.9116 56.8333 42.5516 57.2067 42.2716 57.7C42.0049 58.18 41.8716 58.7533 41.8716 59.42C41.8716 60.0867 42.0049 60.6733 42.2716 61.18C42.5516 61.6733 42.9116 62.0533 43.3516 62.32C43.8049 62.5867 44.2849 62.72 44.7916 62.72C45.3116 62.72 45.7982 62.5933 46.2516 62.34C46.7049 62.0733 47.0649 61.7 47.3316 61.22C47.5982 60.7267 47.7316 60.14 47.7316 59.46Z" fill="black"/>
<path d="M56.0863 55.64C56.4463 55.0533 56.9129 54.5933 57.4863 54.26C58.0729 53.9267 58.7396 53.76 59.4863 53.76V56.7H58.7463C57.8662 56.7 57.1996 56.9067 56.7463 57.32C56.3063 57.7333 56.0863 58.4533 56.0863 59.48V65H53.2863V53.92H56.0863V55.64Z" fill="black"/>
<path d="M25.6751 24.32H47.104C49.3797 24.32 51.5207 23.1114 52.6915 21.1656L55.0185 17.2986C55.3832 16.6923 55.1862 15.9061 54.5781 15.5424C53.9703 15.1787 53.1817 15.3752 52.8168 15.9814L50.4899 19.8485C49.7804 21.0275 48.4829 21.76 47.1038 21.76H25.6751C24.9662 21.76 24.3914 22.3331 24.3914 23.04C24.3914 23.7469 24.9662 24.32 25.6751 24.32Z" fill="black"/>
<path d="M80.8767 26.891V23.04C80.8767 15.2763 74.5419 8.96 66.7554 8.96H59.6612C57.6726 7.40048 49.5718 1.28 44.9315 1.28H36.2661C34.5008 1.28 32.7512 1.54624 31.0664 2.0712C31.0337 2.08128 31.0016 2.0928 30.9698 2.1056L19.1447 6.8536C17.3681 7.40192 15.5245 7.68 13.6643 7.68H9.41748C9.35667 7.55552 9.27563 7.4384 9.17197 7.33488L7.92479 6.09136C9.30227 5.50352 10.2701 4.13888 10.2701 2.5528V1.28C10.2701 0.57312 9.69526 0 8.9863 0H1.28376C0.574802 0 0 0.57312 0 1.28V2.5528C0 4.67408 1.73099 6.4 3.85849 6.4H4.60339L5.88715 7.68H4.81441C2.86759 7.68 1.28376 9.2592 1.28376 11.2003V21.76C1.28376 24.7213 3.41768 27.215 6.72047 28.1142C8.34266 30.4592 11.0544 32 14.1213 32C16.5637 32 18.7804 31.0221 20.4018 29.44H60.4748C62.0961 31.0221 64.3129 32 66.7552 32C69.1976 32 71.4143 31.0221 73.0357 29.44H80.7162C81.4252 29.44 82 28.8669 82 28.16C82 27.5074 81.5098 26.9699 80.8767 26.891ZM2.56751 2.56H7.70254C7.69869 3.26656 7.121 3.84 6.41157 3.84H3.85849C3.14906 3.84 2.57137 3.26656 2.56751 2.56ZM57.1733 10.2821C56.6002 10.6829 56.174 11.1085 55.88 11.4563L31.6523 9.14192C32.7856 7.11488 35.1388 3.84 38.5127 3.84H44.9315C47.9629 3.84 53.9693 7.87584 57.1733 10.2821ZM3.85127 21.76V11.2003C3.85127 10.6707 4.28326 10.24 4.81441 10.24H13.6643C15.8013 10.24 17.919 9.91776 19.9587 9.28224C19.9915 9.27216 20.0236 9.26064 20.0553 9.24784L31.8391 4.51648C31.5183 4.8592 31.2048 5.22544 30.9004 5.62032C29.3279 7.66128 28.5246 9.68912 28.4911 9.7744C28.3446 10.1482 28.3824 10.5688 28.5935 10.9107C28.8043 11.2525 29.1638 11.476 29.5645 11.5142L56.3629 14.0742C56.4078 14.0786 56.4526 14.0808 56.4969 14.0808C56.9672 14.0808 57.3912 13.8408 57.6109 13.4163C57.7006 13.2661 58.804 11.5202 61.6204 11.5202H66.7554C73.1262 11.5202 78.3092 16.688 78.3092 23.0402V26.8802H74.8729C75.4293 25.7155 75.7417 24.4138 75.7417 23.0402C75.7417 18.0997 71.7104 14.0802 66.7554 14.0802C61.8004 14.0802 57.7691 18.0997 57.7691 23.0402C57.7691 24.4138 58.0815 25.7155 58.6379 26.8802H22.2388C22.7952 25.7155 23.1076 24.4138 23.1076 23.0402C23.1076 18.0997 19.0763 14.0802 14.1213 14.0802C9.16635 14.0802 5.13503 18.0997 5.13503 23.0402C5.13503 23.5702 5.18413 24.0888 5.27303 24.5939C4.3675 23.8574 3.85127 22.8685 3.85127 21.76ZM7.70254 23.04C7.70254 19.511 10.582 16.64 14.1213 16.64C17.6607 16.64 20.5401 19.511 20.5401 23.04C20.5401 26.569 17.6607 29.44 14.1213 29.44C10.582 29.44 7.70254 26.569 7.70254 23.04ZM66.7554 29.44C63.2161 29.44 60.3366 26.569 60.3366 23.04C60.3366 19.511 63.2161 16.64 66.7554 16.64C70.2947 16.64 73.1742 19.511 73.1742 23.04C73.1742 26.569 70.2947 29.44 66.7554 29.44Z" fill="black"/>
<path d="M17.9726 21.76C17.2636 21.76 16.6888 22.3331 16.6888 23.04C16.6888 24.4515 15.537 25.6 14.1213 25.6C12.7057 25.6 11.5538 24.4515 11.5538 23.04C11.5538 21.6285 12.7057 20.48 14.1213 20.48C14.8303 20.48 15.4051 19.9069 15.4051 19.2C15.4051 18.4931 14.8303 17.92 14.1213 17.92C11.2898 17.92 8.9863 20.2168 8.9863 23.04C8.9863 25.8632 11.2898 28.16 14.1213 28.16C16.9528 28.16 19.2564 25.8632 19.2564 23.04C19.2564 22.3331 18.6816 21.76 17.9726 21.76Z" fill="black"/>
<path d="M70.6067 21.76C69.8977 21.76 69.3229 22.3331 69.3229 23.04C69.3229 24.4515 68.1711 25.6 66.7554 25.6C65.3397 25.6 64.1879 24.4515 64.1879 23.04C64.1879 21.6285 65.3397 20.48 66.7554 20.48C67.4643 20.48 68.0391 19.9069 68.0391 19.2C68.0391 18.4931 67.4643 17.92 66.7554 17.92C63.9239 17.92 61.6204 20.2168 61.6204 23.04C61.6204 25.8632 63.9239 28.16 66.7554 28.16C69.5869 28.16 71.8904 25.8632 71.8904 23.04C71.8904 22.3331 71.3156 21.76 70.6067 21.76Z" fill="black"/>
</svg>
